<svg width="1664" height="473" viewBox="0 0 1664 473" fill="none" xmlns="http://www.w3.org/2000/svg">
<path d="M153.05 212.41C153.05 207.74 152.35 203.54 150.97 199.81C149.58 196.09 147.05 192.64 143.39 189.49C139.73 186.33 134.55 183.14 127.86 179.92C121.17 176.7 112.39 173.39 101.53 169.98C89.15 165.94 77.38 161.36 66.2 156.25C55.02 151.13 45.08 145.17 36.37 138.35C27.66 131.53 20.8 123.57 15.82 114.48C10.83 105.39 8.34 94.78 8.34 82.66C8.34 70.54 10.93 60.31 16.11 50.84C21.29 41.37 28.55 33.26 37.89 26.5C47.23 19.75 58.22 14.57 70.85 10.97C83.48 7.37001 97.37 5.57001 112.52 5.57001C132.72 5.57001 150.5 9.14001 165.84 16.27C181.18 23.41 193.15 33.38 201.74 46.2C210.33 59.02 214.62 73.89 214.62 90.81H153.25C153.25 83.36 151.7 76.76 148.61 71.02C145.51 65.27 140.84 60.76 134.59 57.48C128.34 54.2 120.54 52.55 111.2 52.55C101.86 52.55 94.5 53.91 88.37 56.62C82.24 59.34 77.63 63.03 74.54 67.7C71.44 72.37 69.9 77.49 69.9 83.04C69.9 87.46 71.07 91.47 73.4 95.07C75.74 98.67 79.15 102.02 83.63 105.11C88.11 108.21 93.64 111.14 100.2 113.92C106.77 116.7 114.28 119.35 122.74 121.88C137.51 126.55 150.61 131.73 162.04 137.41C173.47 143.09 183.1 149.53 190.93 156.73C198.76 163.93 204.66 172.07 208.64 181.17C212.62 190.26 214.61 200.56 214.61 212.05C214.61 224.3 212.24 235.16 207.51 244.63C202.78 254.1 195.96 262.15 187.05 268.78C178.15 275.41 167.51 280.43 155.13 283.84C142.75 287.25 128.92 288.95 113.65 288.95C99.76 288.95 86.06 287.15 72.54 283.55C59.03 279.95 46.81 274.43 35.89 266.98C24.97 259.53 16.25 250.03 9.75 238.47C3.24 226.91 0 213.18 0 197.27H61.75C61.75 205.6 62.95 212.65 65.35 218.39C67.75 224.14 71.19 228.78 75.67 232.31C80.15 235.85 85.62 238.37 92.05 239.89C98.49 241.41 105.69 242.16 113.65 242.16C122.86 242.16 130.35 240.87 136.1 238.28C141.85 235.69 146.11 232.12 148.88 227.58C151.66 223.03 153.05 217.99 153.05 212.43V212.41Z" fill="white"/>
<path d="M662.4 78.54V285.15H600.84V78.54H662.4Z" fill="white"/>
<path d="M791.63 9.34998V285.15H729.88V9.34998H791.63ZM909.83 237.41V285.14H770.6V237.41H909.83Z" fill="white"/>
<path d="M1019.54 9.34998V285.15H957.79V9.34998H1019.54ZM1137.74 237.41V285.14H998.51V237.41H1137.74Z" fill="white"/>
<path d="M1394.83 84.64C1389.02 67.91 1380.84 53.67 1370.29 41.92C1359.74 30.19 1347.22 21.18 1332.7 14.94C1318.18 8.69 1302.13 5.56 1284.59 5.56C1267.05 5.56 1251 8.69 1236.46 14.94C1221.94 21.19 1209.41 30.19 1198.87 41.92C1188.32 53.67 1180.14 67.91 1174.35 84.64C1168.54 101.37 1165.63 120.22 1165.63 141.18V153.5C1165.63 174.45 1168.54 193.28 1174.35 209.95C1180.15 226.62 1188.39 240.83 1199.06 252.56C1199.96 253.56 1200.88 254.54 1201.83 255.49C1211.88 265.82 1223.56 273.84 1236.85 279.56C1241.74 281.66 1246.81 283.42 1252.04 284.8L1284.68 245.99L1317.41 284.92C1322.78 283.52 1327.97 281.73 1332.97 279.56C1346.15 273.86 1357.71 265.88 1367.62 255.61C1368.59 254.61 1369.54 253.6 1370.47 252.56C1381.02 240.83 1389.17 226.62 1394.91 209.95C1400.66 193.28 1403.53 174.46 1403.53 153.5V141.18C1403.53 120.23 1400.62 101.37 1394.82 84.64H1394.83ZM1326.64 217.9C1321.84 225.36 1315.94 230.97 1308.93 234.76C1301.92 238.56 1293.93 240.45 1284.97 240.45C1276.01 240.45 1267.44 238.56 1260.43 234.76C1253.43 230.97 1247.53 225.37 1242.73 217.9C1240.97 215.16 1239.36 212.2 1237.9 209C1235.42 203.52 1233.4 197.36 1231.84 190.54C1229.38 179.74 1228.15 167.39 1228.15 153.51V140.81C1228.15 126.79 1229.38 114.39 1231.84 103.59C1234.3 92.79 1237.9 83.73 1242.64 76.4C1247.38 69.07 1253.2 63.56 1260.15 59.82C1267.1 56.1 1275.25 54.24 1284.59 54.24C1293.93 54.24 1301.57 56.09 1308.65 59.82C1315.72 63.56 1321.64 69.07 1326.46 76.4C1331.26 83.72 1334.92 92.79 1337.44 103.59C1339.96 114.39 1341.23 126.79 1341.23 140.81V153.51C1341.23 167.39 1340 179.75 1337.54 190.54C1335.98 197.36 1333.96 203.52 1331.48 209C1330.02 212.19 1328.41 215.15 1326.65 217.9H1326.64Z" fill="white"/>
<path d="M1602.1 212.41C1602.1 207.74 1601.4 203.54 1600.02 199.81C1598.63 196.09 1596.1 192.64 1592.44 189.49C1588.78 186.33 1583.6 183.14 1576.91 179.92C1570.22 176.7 1561.44 173.39 1550.58 169.98C1538.2 165.94 1526.43 161.36 1515.25 156.25C1504.07 151.13 1494.13 145.17 1485.42 138.35C1476.71 131.53 1469.85 123.57 1464.87 114.48C1459.88 105.39 1457.39 94.78 1457.39 82.66C1457.39 70.54 1459.98 60.31 1465.16 50.84C1470.34 41.37 1477.6 33.26 1486.94 26.5C1496.28 19.75 1507.27 14.57 1519.9 10.97C1532.53 7.37001 1546.42 5.57001 1561.57 5.57001C1581.77 5.57001 1599.55 9.14001 1614.89 16.27C1630.23 23.41 1642.2 33.38 1650.79 46.2C1659.38 59.02 1663.67 73.89 1663.67 90.81H1602.3C1602.3 83.36 1600.75 76.76 1597.66 71.02C1594.56 65.27 1589.89 60.76 1583.64 57.48C1577.39 54.2 1569.59 52.55 1560.25 52.55C1550.91 52.55 1543.55 53.91 1537.42 56.62C1531.29 59.34 1526.68 63.03 1523.59 67.7C1520.49 72.37 1518.95 77.49 1518.95 83.04C1518.95 87.46 1520.12 91.47 1522.45 95.07C1524.79 98.67 1528.2 102.02 1532.68 105.11C1537.16 108.21 1542.69 111.14 1549.25 113.92C1555.82 116.7 1563.33 119.35 1571.79 121.88C1586.56 126.55 1599.66 131.73 1611.09 137.41C1622.52 143.09 1632.15 149.53 1639.98 156.73C1647.81 163.93 1653.71 172.07 1657.69 181.17C1661.67 190.26 1663.66 200.56 1663.66 212.05C1663.66 224.3 1661.29 235.16 1656.56 244.63C1651.83 254.1 1645.01 262.15 1636.1 268.78C1627.2 275.41 1616.56 280.43 1604.18 283.84C1591.8 287.25 1577.97 288.95 1562.7 288.95C1548.81 288.95 1535.11 287.15 1521.59 283.55C1508.08 279.95 1495.86 274.43 1484.94 266.98C1474.02 259.53 1465.3 250.03 1458.8 238.47C1452.29 226.91 1449.05 213.18 1449.05 197.27H1510.8C1510.8 205.6 1512 212.65 1514.4 218.39C1516.8 224.14 1520.24 228.78 1524.72 232.31C1529.2 235.85 1534.67 238.37 1541.1 239.89C1547.54 241.41 1554.74 242.16 1562.7 242.16C1571.92 242.16 1579.4 240.87 1585.15 238.28C1590.9 235.69 1595.16 232.12 1597.93 227.58C1600.71 223.03 1602.1 217.99 1602.1 212.43V212.41Z" fill="white"/>
<path d="M450.07 228.97C445.19 218.16 428.81 179.64 422.84 165.22L390.3 85.49L305.17 285.48H238.74L358.11 5.56H424.1L540.52 285.49H329.58L352.3 229.23" fill="white"/>
<path d="M14.36 379.99V471.61H0V379.99H14.36Z" fill="white"/>
<path d="M102.2 379.99V392.58H35.8999V379.99H102.2ZM76.0599 379.99V471.61H61.8199V379.99H76.0599Z" fill="white"/>
<path d="M174.98 421.77L189.34 411.13C191.74 409.37 193.46 407.64 194.49 405.94C195.52 404.24 196.03 402.11 196.03 399.55C196.03 397.37 195.27 395.36 193.74 393.51C192.21 391.67 190.06 390.74 187.28 390.74C185.33 390.74 183.69 391.23 182.36 392.22C181.02 393.21 180.02 394.51 179.36 396.12C178.69 397.74 178.36 399.53 178.36 401.5C178.36 403.47 178.8 405.33 179.68 407.32C180.56 409.31 181.76 411.39 183.28 413.55C184.8 415.71 186.52 418.03 188.43 420.5L227.79 471.6H211.83L179.68 430C176.9 426.31 174.44 422.92 172.3 419.84C170.16 416.76 168.5 413.76 167.32 410.84C166.14 407.93 165.55 404.92 165.55 401.81C165.55 397.03 166.45 392.92 168.24 389.48C170.03 386.04 172.57 383.39 175.85 381.52C179.13 379.65 182.96 378.72 187.35 378.72C191.74 378.72 195.24 379.65 198.3 381.52C201.37 383.39 203.74 385.85 205.39 388.91C207.05 391.97 207.88 395.33 207.88 398.98C207.88 401.87 207.4 404.52 206.45 406.91C205.5 409.3 204.18 411.48 202.5 413.45C200.82 415.42 198.88 417.29 196.66 419.05L179.21 433.02C177.19 434.82 175.69 436.55 174.72 438.21C173.75 439.87 173.11 441.39 172.8 442.77C172.49 444.16 172.34 445.37 172.34 446.42C172.34 449.11 172.86 451.54 173.91 453.72C174.96 455.9 176.5 457.63 178.55 458.91C180.59 460.19 183.08 460.83 186.01 460.83C189.17 460.83 192.25 460.04 195.22 458.47C198.19 456.9 200.86 454.66 203.23 451.77C205.59 448.87 207.47 445.41 208.87 441.39C210.26 437.36 210.96 432.9 210.96 427.99H222.86C222.86 432.44 222.47 436.65 221.69 440.64C220.91 444.63 219.67 448.32 217.97 451.71C216.27 455.11 214.05 458.15 211.31 460.83C211.04 461.12 210.75 461.49 210.42 461.93C210.1 462.37 209.78 462.74 209.48 463.03C206.2 466.34 202.53 468.81 198.47 470.42C194.41 472.03 190.09 472.84 185.51 472.84C179.98 472.84 175.19 471.73 171.15 469.51C167.11 467.29 163.99 464.22 161.8 460.32C159.61 456.42 158.51 451.95 158.51 446.92C158.51 443.19 159.22 439.9 160.63 437.07C162.04 434.24 163.98 431.6 166.44 429.14C168.9 426.69 171.75 424.22 174.99 421.75L174.98 421.77Z" fill="white"/>
<path d="M338.03 441.78H352.33C351.87 447.78 350.35 453.12 347.75 457.79C345.16 462.47 341.51 466.15 336.82 468.83C332.13 471.52 326.43 472.86 319.72 472.86C314.57 472.86 309.94 471.84 305.82 469.81C301.7 467.78 298.17 464.88 295.24 461.13C292.3 457.38 290.06 452.84 288.52 447.51C286.98 442.18 286.2 436.22 286.2 429.64V422.03C286.2 415.45 286.99 409.49 288.57 404.16C290.15 398.83 292.43 394.27 295.41 390.47C298.38 386.67 301.96 383.77 306.14 381.75C310.32 379.74 315.02 378.73 320.24 378.73C326.88 378.73 332.48 380.07 337.06 382.76C341.64 385.44 345.19 389.16 347.73 393.9C350.27 398.64 351.82 404.07 352.39 410.2H338.09C337.71 406.26 336.88 402.88 335.6 400.07C334.32 397.26 332.44 395.11 329.96 393.62C327.48 392.13 324.24 391.39 320.23 391.39C316.95 391.39 314.09 392.06 311.65 393.4C309.21 394.74 307.17 396.71 305.53 399.32C303.89 401.92 302.66 405.12 301.84 408.92C301.02 412.72 300.61 417.05 300.61 421.92V429.66C300.61 434.28 300.98 438.46 301.73 442.21C302.47 445.96 303.62 449.18 305.16 451.87C306.7 454.56 308.68 456.63 311.08 458.1C313.48 459.57 316.36 460.3 319.72 460.3C323.8 460.3 327.11 459.59 329.65 458.16C332.19 456.73 334.11 454.65 335.43 451.9C336.75 449.15 337.61 445.79 338.03 441.8V441.78Z" fill="white"/>
<path d="M376.57 379.99H406.03C412.36 379.99 417.76 381.04 422.22 383.14C426.68 385.24 430.11 388.33 432.49 392.42C434.87 396.51 436.06 401.56 436.06 407.55C436.06 412.12 435.3 416.15 433.77 419.63C432.24 423.11 430.09 426.04 427.31 428.41C424.53 430.78 421.21 432.62 417.36 433.92L413.01 436.25H386.52L386.41 423.73H406.26C409.69 423.73 412.55 423.06 414.84 421.72C417.13 420.38 418.85 418.54 420.02 416.21C421.18 413.88 421.76 411.25 421.76 408.31C421.76 405.12 421.2 402.34 420.07 399.97C418.95 397.6 417.22 395.78 414.89 394.5C412.56 393.22 409.61 392.58 406.02 392.58H390.92V471.62H376.56V380L376.57 379.99ZM424.11 471.61L404.55 430.46L419.6 430.4L439.45 470.8V471.62H424.12L424.11 471.61Z" fill="white"/>
<path d="M475.91 379.99V471.61H461.55V379.99H475.91ZM515.79 379.99V392.58H471.86V379.99H515.79ZM510.29 418.25V430.58H471.85V418.25H510.29ZM516.07 459.09V471.61H471.85V459.09H516.07Z" fill="white"/>
<path d="M571.43 392.2L546.55 471.61H531.5L562.85 379.99H572.46L571.43 392.2ZM591.05 437.63V450.15H545.74V437.63H591.05ZM592.25 471.61L567.31 392.2L566.22 379.99H575.89L607.35 471.61H592.25Z" fill="white"/>
<path d="M681.12 379.99V392.58H614.82V379.99H681.12ZM654.98 379.99V471.61H640.74V379.99H654.98Z" fill="white"/>
<path d="M718.69 379.99V471.61H704.33V379.99H718.69Z" fill="white"/>
<path d="M756.08 379.99L777.82 454.87L780.79 471.61H770.04L740.29 379.99H756.08ZM776.33 454.87L798.24 379.99H814.09L784.23 471.61H773.53L776.33 454.87Z" fill="white"/>
<path d="M849.01 379.99V471.61H834.65V379.99H849.01ZM888.89 379.99V392.58H844.96V379.99H888.89ZM883.4 418.25V430.58H844.96V418.25H883.4ZM889.17 459.09V471.61H844.95V459.09H889.17Z" fill="white"/>
<path d="M996.28 448.02C996.28 446.13 996.02 444.45 995.51 442.99C995 441.52 994.09 440.18 992.79 438.96C991.49 437.74 989.67 436.56 987.33 435.4C984.98 434.25 982 433.06 978.38 431.85C974.41 430.51 970.76 429.01 967.43 427.35C964.09 425.69 961.18 423.76 958.71 421.56C956.23 419.36 954.31 416.82 952.93 413.95C951.56 411.08 950.87 407.75 950.87 403.98C950.87 400.21 951.58 396.85 953.02 393.78C954.45 390.72 956.49 388.06 959.14 385.82C961.79 383.58 964.93 381.83 968.55 380.6C972.17 379.36 976.18 378.74 980.56 378.74C986.74 378.74 992.07 380 996.55 382.52C1001.03 385.04 1004.48 388.41 1006.91 392.65C1009.33 396.89 1010.54 401.56 1010.54 406.68H996.3C996.3 403.66 995.72 400.98 994.56 398.66C993.4 396.33 991.64 394.5 989.3 393.15C986.95 391.81 983.99 391.14 980.4 391.14C977 391.14 974.18 391.71 971.93 392.84C969.68 393.97 968 395.5 966.9 397.43C965.79 399.36 965.24 401.54 965.24 403.97C965.24 405.69 965.6 407.25 966.33 408.66C967.05 410.07 968.16 411.37 969.65 412.56C971.14 413.75 973.01 414.88 975.26 415.93C977.51 416.98 980.16 417.99 983.21 418.95C987.82 420.46 991.85 422.13 995.28 423.95C998.71 425.77 1001.57 427.84 1003.86 430.15C1006.15 432.46 1007.86 435.07 1009.01 437.98C1010.16 440.89 1010.73 444.2 1010.73 447.89C1010.73 451.58 1010.02 455.22 1008.61 458.3C1007.2 461.38 1005.19 464.01 1002.58 466.17C999.97 468.33 996.84 469.99 993.2 471.14C989.56 472.29 985.5 472.87 981.04 472.87C977.04 472.87 973.1 472.28 969.23 471.11C965.36 469.94 961.84 468.14 958.68 465.73C955.51 463.32 953 460.3 951.13 456.67C949.26 453.04 948.33 448.79 948.33 443.93H962.69C962.69 446.91 963.16 449.45 964.09 451.54C965.03 453.64 966.33 455.35 968.01 456.67C969.69 457.99 971.64 458.97 973.87 459.6C976.1 460.23 978.49 460.54 981.05 460.54C984.41 460.54 987.22 460.02 989.49 458.97C991.76 457.92 993.47 456.45 994.61 454.57C995.75 452.69 996.33 450.5 996.33 448.03L996.28 448.02Z" fill="white"/>
<path d="M1101.05 423.28V428.31C1101.05 435.23 1100.23 441.44 1098.59 446.94C1096.95 452.43 1094.61 457.11 1091.58 460.97C1088.55 464.83 1084.91 467.78 1080.68 469.81C1076.45 471.84 1071.76 472.86 1066.61 472.86C1061.46 472.86 1056.84 471.84 1052.62 469.81C1048.41 467.78 1044.75 464.83 1041.67 460.97C1038.58 457.11 1036.19 452.43 1034.49 446.94C1032.79 441.44 1031.94 435.23 1031.94 428.31V423.28C1031.94 416.36 1032.78 410.16 1034.46 404.69C1036.14 399.22 1038.51 394.54 1041.58 390.66C1044.65 386.78 1048.29 383.82 1052.5 381.79C1056.71 379.76 1061.38 378.74 1066.49 378.74C1071.6 378.74 1076.33 379.76 1080.56 381.79C1084.79 383.82 1088.43 386.78 1091.49 390.66C1094.54 394.54 1096.9 399.22 1098.56 404.69C1100.22 410.16 1101.05 416.36 1101.05 423.28ZM1086.7 428.32V423.16C1086.7 418.04 1086.25 413.52 1085.35 409.6C1084.45 405.68 1083.14 402.39 1081.4 399.72C1079.66 397.06 1077.54 395.04 1075.02 393.68C1072.5 392.32 1069.66 391.63 1066.5 391.63C1063.34 391.63 1060.51 392.31 1058.03 393.68C1055.55 395.04 1053.44 397.06 1051.71 399.72C1049.98 402.39 1048.65 405.68 1047.73 409.6C1046.81 413.52 1046.36 418.04 1046.36 423.16V428.32C1046.36 433.44 1046.82 437.97 1047.73 441.91C1048.65 445.85 1049.99 449.18 1051.76 451.88C1053.53 454.59 1055.66 456.62 1058.14 457.98C1060.62 459.34 1063.44 460.03 1066.61 460.03C1069.78 460.03 1072.65 459.35 1075.13 457.98C1077.61 456.62 1079.71 454.58 1081.42 451.88C1083.14 449.17 1084.44 445.85 1085.34 441.91C1086.24 437.97 1086.69 433.44 1086.69 428.32H1086.7Z" fill="white"/>
<path d="M1140.96 379.99V471.61H1126.6V379.99H1140.96ZM1178.78 459.09V471.61H1136.96V459.09H1178.78Z" fill="white"/>
<path d="M1245.4 379.99H1259.7V441.22C1259.7 448.18 1258.33 454.02 1255.58 458.71C1252.83 463.41 1249.11 466.94 1244.4 469.31C1239.69 471.68 1234.44 472.87 1228.64 472.87C1222.84 472.87 1217.31 471.68 1212.62 469.31C1207.93 466.94 1204.24 463.41 1201.55 458.71C1198.86 454.01 1197.52 448.18 1197.52 441.22V379.99H1211.82V441.22C1211.82 445.62 1212.51 449.24 1213.88 452.08C1215.25 454.91 1217.2 457 1219.72 458.34C1222.24 459.68 1225.21 460.35 1228.64 460.35C1232.07 460.35 1235.04 459.68 1237.54 458.34C1240.04 457 1241.97 454.91 1243.35 452.08C1244.72 449.25 1245.41 445.63 1245.41 441.22V379.99H1245.4Z" fill="white"/>
<path d="M1346.97 379.99V392.58H1280.67V379.99H1346.97ZM1320.83 379.99V471.61H1306.59V379.99H1320.83Z" fill="white"/>
<path d="M1384.54 379.99V471.61H1370.18V379.99H1384.54Z" fill="white"/>
<path d="M1480.05 423.28V428.31C1480.05 435.23 1479.23 441.44 1477.59 446.94C1475.95 452.43 1473.61 457.11 1470.58 460.97C1467.55 464.83 1463.91 467.78 1459.68 469.81C1455.45 471.84 1450.76 472.86 1445.61 472.86C1440.46 472.86 1435.84 471.84 1431.62 469.81C1427.41 467.78 1423.75 464.83 1420.67 460.97C1417.59 457.11 1415.19 452.43 1413.49 446.94C1411.79 441.44 1410.94 435.23 1410.94 428.31V423.28C1410.94 416.36 1411.78 410.16 1413.46 404.69C1415.14 399.22 1417.51 394.54 1420.58 390.66C1423.65 386.78 1427.29 383.82 1431.5 381.79C1435.71 379.76 1440.38 378.74 1445.49 378.74C1450.6 378.74 1455.33 379.76 1459.56 381.79C1463.79 383.82 1467.43 386.78 1470.49 390.66C1473.54 394.54 1475.9 399.22 1477.56 404.69C1479.22 410.16 1480.05 416.36 1480.05 423.28ZM1465.69 428.32V423.16C1465.69 418.04 1465.24 413.52 1464.34 409.6C1463.44 405.68 1462.13 402.39 1460.39 399.72C1458.65 397.06 1456.53 395.04 1454.01 393.68C1451.49 392.32 1448.65 391.63 1445.49 391.63C1442.33 391.63 1439.5 392.31 1437.02 393.68C1434.54 395.04 1432.43 397.06 1430.7 399.72C1428.97 402.39 1427.64 405.68 1426.72 409.6C1425.8 413.52 1425.35 418.04 1425.35 423.16V428.32C1425.35 433.44 1425.81 437.97 1426.72 441.91C1427.64 445.85 1428.98 449.18 1430.75 451.88C1432.52 454.59 1434.65 456.62 1437.13 457.98C1439.61 459.34 1442.43 460.03 1445.6 460.03C1448.77 460.03 1451.64 459.35 1454.12 457.98C1456.6 456.62 1458.7 454.58 1460.41 451.88C1462.13 449.17 1463.43 445.85 1464.33 441.91C1465.23 437.97 1465.68 433.44 1465.68 428.32H1465.69Z" fill="white"/>
<path d="M1571.67 379.99V471.61H1557.31L1519.95 405.98V471.61H1505.59V379.99H1519.95L1557.42 445.75V379.99H1571.66H1571.67Z" fill="white"/>
<path d="M1643.78 448.02C1643.78 446.13 1643.52 444.45 1643.01 442.99C1642.5 441.52 1641.59 440.18 1640.29 438.96C1638.99 437.74 1637.17 436.56 1634.83 435.4C1632.48 434.25 1629.5 433.06 1625.88 431.85C1621.91 430.51 1618.26 429.01 1614.93 427.35C1611.59 425.69 1608.68 423.76 1606.21 421.56C1603.73 419.36 1601.81 416.82 1600.43 413.95C1599.06 411.08 1598.37 407.75 1598.37 403.98C1598.37 400.21 1599.08 396.85 1600.52 393.78C1601.95 390.72 1603.99 388.06 1606.64 385.82C1609.29 383.58 1612.43 381.83 1616.05 380.6C1619.67 379.36 1623.68 378.74 1628.06 378.74C1634.24 378.74 1639.57 380 1644.05 382.52C1648.53 385.04 1651.98 388.41 1654.41 392.65C1656.83 396.89 1658.04 401.56 1658.04 406.68H1643.8C1643.8 403.66 1643.22 400.98 1642.06 398.66C1640.9 396.33 1639.14 394.5 1636.8 393.15C1634.45 391.81 1631.49 391.14 1627.9 391.14C1624.5 391.14 1621.68 391.71 1619.43 392.84C1617.18 393.97 1615.5 395.5 1614.4 397.43C1613.29 399.36 1612.74 401.54 1612.74 403.97C1612.74 405.69 1613.1 407.25 1613.83 408.66C1614.55 410.07 1615.66 411.37 1617.15 412.56C1618.64 413.76 1620.51 414.88 1622.76 415.93C1625.01 416.98 1627.66 417.99 1630.71 418.95C1635.32 420.46 1639.35 422.13 1642.78 423.95C1646.21 425.77 1649.07 427.84 1651.36 430.15C1653.65 432.46 1655.36 435.07 1656.51 437.98C1657.66 440.89 1658.23 444.2 1658.23 447.89C1658.23 451.58 1657.52 455.22 1656.11 458.3C1654.7 461.38 1652.69 464.01 1650.08 466.17C1647.47 468.33 1644.34 469.99 1640.7 471.14C1637.06 472.29 1633 472.87 1628.54 472.87C1624.54 472.87 1620.6 472.28 1616.73 471.11C1612.86 469.94 1609.34 468.14 1606.18 465.73C1603.01 463.32 1600.5 460.3 1598.63 456.67C1596.76 453.04 1595.83 448.79 1595.83 443.93H1610.19C1610.19 446.91 1610.66 449.45 1611.59 451.54C1612.53 453.64 1613.83 455.35 1615.51 456.67C1617.19 457.99 1619.14 458.97 1621.37 459.6C1623.6 460.23 1625.99 460.54 1628.55 460.54C1631.91 460.54 1634.72 460.02 1636.99 458.97C1639.26 457.92 1640.97 456.45 1642.11 454.57C1643.25 452.69 1643.83 450.5 1643.83 448.03L1643.78 448.02Z" fill="white"/>
<path d="M633.34 0L662.56 51.57H600.67L633.34 0Z" fill="#02B8DF"/>
<path d="M1331.47 209L1326.13 202.11L1284.69 148.64L1243.25 202.11L1237.91 209L1201.84 255.49C1211.89 265.82 1223.57 273.84 1236.86 279.56C1241.75 281.66 1246.82 283.42 1252.05 284.8L1284.69 245.99L1317.42 284.92C1322.79 283.52 1327.98 281.73 1332.98 279.56C1346.16 273.86 1357.72 265.88 1367.63 255.61L1331.47 209Z" fill="#02B8DF"/>
</svg>
